<svg width="2000" height="1040" viewBox="0 0 2000 1040" fill="none" xmlns="http://www.w3.org/2000/svg">
<path d="M0 0H2000V1040H0V0Z" fill="#2F2F2F"/>
<g filter="url(#filter0_d_2_20)">
<path d="M974.712 696.788V699.928H1040.02C1040.02 702.021 1039.4 704.115 1038.14 706.208H969.688C968.432 709.139 966.339 711.232 963.408 712.488H992.296C990.203 714.163 987.272 715 983.504 715H621.776C618.008 715 615.077 714.163 612.984 712.488H584.096C582.84 711.651 581.584 710.813 580.328 709.976C579.491 708.72 578.653 707.464 577.816 706.208H646.896C646.059 704.533 645.221 702.44 644.384 699.928H579.072V696.788H647.524V687.368H594.144V684.228H558.348V674.808H632.452V665.388H564V652.828H587.236V646.548H606.076V633.988H596.656V632.732C596.656 631.895 596.656 630.429 596.656 628.336C597.075 626.243 597.493 623.94 597.912 621.428H628.684C629.103 619.753 629.521 618.288 629.94 617.032C630.777 615.357 631.405 613.683 631.824 612.008H590.376C591.213 611.171 591.841 610.124 592.26 608.868C593.097 607.612 593.935 606.565 594.772 605.728H597.284C599.377 603.216 601.68 600.913 604.192 598.82L611.1 593.796C611.519 593.796 611.728 593.796 611.728 593.796C611.728 593.377 611.937 593.168 612.356 593.168H611.728C613.403 592.331 614.868 591.284 616.124 590.028C617.38 588.772 618.845 587.725 620.52 586.888H623.66C624.497 586.051 625.335 585.423 626.172 585.004C627.009 584.585 627.637 584.167 628.056 583.748H628.684C630.777 582.073 632.871 580.608 634.964 579.352C637.476 577.677 639.569 576.003 641.244 574.328H635.592C637.267 573.491 638.732 572.444 639.988 571.188C641.244 569.932 642.709 568.885 644.384 568.048H646.268L659.456 558.628H665.736C668.667 556.535 671.388 554.441 673.9 552.348C676.831 549.836 679.761 547.743 682.692 546.068H658.2C661.131 543.975 663.852 541.881 666.364 539.788C669.295 537.276 672.225 535.183 675.156 533.508H700.276C701.113 532.671 701.951 532.043 702.788 531.624C703.625 531.205 704.253 530.787 704.672 530.368H707.812C709.487 529.531 710.952 528.484 712.208 527.228C713.464 525.972 714.929 524.925 716.604 524.088H686.46C689.809 521.995 692.74 519.901 695.252 517.808C698.183 515.296 700.904 513.203 703.416 511.528H700.276L704.044 508.388H727.28C728.117 507.551 728.955 506.923 729.792 506.504C730.629 506.085 731.257 505.667 731.676 505.248H680.18L696.508 492.688H756.796L760.564 489.548H714.092L725.396 480.128H753.028L760.564 473.848H726.024C728.536 471.755 730.839 469.661 732.932 467.568C735.444 465.056 737.537 462.963 739.212 461.288H802.012C802.849 460.451 803.477 459.823 803.896 459.404C804.315 458.985 804.733 458.567 805.152 458.148H787.568C788.824 457.311 789.871 456.264 790.708 455.008C791.964 453.752 793.011 452.705 793.848 451.868H726.652C730.001 448.519 732.513 445.379 734.188 442.448H776.264L783.172 429.888H804.524C806.617 424.864 807.664 420.677 807.664 417.328H827.76V414.188H843.46C843.46 412.513 843.46 411.048 843.46 409.792C843.46 408.117 843.251 406.443 842.832 404.768H820.852L819.596 401.628H782.544L780.66 404.768H795.104C794.267 406.443 793.429 408.117 792.592 409.792C792.173 411.048 791.545 412.513 790.708 414.188H766.216L764.96 417.328H752.4C751.981 418.165 751.772 419.003 751.772 419.84C751.772 420.677 751.563 421.515 751.144 422.352C750.725 424.027 750.097 425.492 749.26 426.748C748.423 428.004 747.585 429.051 746.748 429.888H698.392C695.88 432.819 692.74 434.703 688.972 435.54C685.623 436.377 681.855 436.796 677.668 436.796H559.604C554.161 436.796 550.184 434.493 547.672 429.888H596.028C594.772 427.795 594.144 425.492 594.144 422.98V417.328H606.704V414.188H631.196C631.196 412.513 631.196 411.048 631.196 409.792C631.615 408.117 631.824 406.443 631.824 404.768H617.38C617.38 403.512 617.589 402.465 618.008 401.628H595.4C595.4 400.791 595.4 400.163 595.4 399.744C595.819 399.325 596.028 398.907 596.028 398.488H548.3C548.719 397.651 548.928 396.604 548.928 395.348C548.928 394.092 549.137 393.045 549.556 392.208H599.168L602.308 379.648H593.516C593.516 379.229 593.935 378.183 594.772 376.508H530.088C530.507 374.833 531.135 373.368 531.972 372.112C532.391 370.437 532.809 368.763 533.228 367.088H629.94C630.777 365.413 631.615 363.948 632.452 362.692C633.289 361.017 633.917 359.343 634.336 357.668H564.628C565.884 355.575 567.14 353.481 568.396 351.388C569.652 348.876 570.908 346.783 572.164 345.108H585.352C586.189 344.271 587.027 343.224 587.864 341.968C588.701 340.712 589.329 339.665 589.748 338.828H629.312C630.568 337.572 631.405 336.525 631.824 335.688H595.4C596.237 334.851 597.075 333.804 597.912 332.548C598.749 331.292 599.587 330.245 600.424 329.408H632.452L635.592 326.268H631.196C634.964 321.663 639.151 317.476 643.756 313.708H658.2L661.968 310.568H631.824L635.592 307.428H656.944C658.619 306.591 660.084 305.544 661.34 304.288C663.015 303.032 664.48 301.985 665.736 301.148H703.416L713.464 294.868H738.584C742.771 292.356 746.957 290.053 751.144 287.96C755.749 285.867 760.355 283.983 764.96 282.308H703.416C704.672 281.471 705.928 280.843 707.184 280.424C708.859 280.005 710.324 279.587 711.58 279.168H688.344C690.437 278.331 692.112 277.703 693.368 277.284C695.043 276.865 696.717 276.447 698.392 276.028H810.176C831.528 269.748 854.764 266.608 879.884 266.608C908.772 266.608 934.52 269.748 957.128 276.028H845.344C847.437 276.447 849.321 276.865 850.996 277.284C852.671 277.703 854.345 278.331 856.02 279.168H879.256C880.931 279.587 882.396 280.005 883.652 280.424C885.327 280.843 886.792 281.471 888.048 282.308H949.592C954.616 283.983 959.221 285.867 963.408 287.96C968.013 290.053 972.409 292.356 976.596 294.868H951.476C953.151 295.705 954.825 296.752 956.5 298.008C958.175 299.264 959.849 300.311 961.524 301.148H923.844L932.008 307.428H910.028L913.796 310.568H944.568L948.336 313.708H933.264C935.357 315.383 937.451 317.476 939.544 319.988C941.637 322.081 943.521 324.175 945.196 326.268H949.592C950.011 326.687 950.429 327.105 950.848 327.524C951.267 327.943 951.685 328.571 952.104 329.408H920.076C920.913 330.245 921.541 331.292 921.96 332.548C922.797 333.804 923.635 334.851 924.472 335.688H960.896L962.78 338.828H923.216C924.472 340.921 925.519 343.015 926.356 345.108H913.168L918.82 357.668H988.528C989.365 359.343 989.993 361.017 990.412 362.692C990.831 363.948 991.249 365.413 991.668 367.088H894.956C895.793 368.763 896.212 370.437 896.212 372.112C896.631 373.368 897.049 374.833 897.468 376.508H962.152C962.152 376.927 962.152 377.345 962.152 377.764C962.571 378.183 962.78 378.811 962.78 379.648H971.572C972.828 383.835 973.456 388.021 973.456 392.208H1004.86L1005.48 398.488H947.708C948.127 399.325 948.336 400.372 948.336 401.628H986.016V404.768H1008V414.188H992.296C992.296 415.444 992.087 416.491 991.668 417.328H971.572C971.572 419.421 971.363 421.515 970.944 423.608C970.944 425.701 970.735 427.795 970.316 429.888H948.964C948.545 431.981 948.127 434.075 947.708 436.168C947.289 438.261 946.661 440.355 945.824 442.448H904.376C903.957 444.123 903.539 445.797 903.12 447.472C902.701 448.728 902.073 450.193 901.236 451.868H967.804L965.292 458.148H982.876L980.992 461.288H918.192C917.355 463.381 916.308 465.475 915.052 467.568C913.796 469.661 912.749 471.755 911.912 473.848H945.824C945.405 474.685 944.777 475.732 943.94 476.988C943.521 478.244 942.893 479.291 942.056 480.128H914.424L908.144 489.548H953.988L952.104 492.688H891.816L881.14 505.248H932.008C931.589 505.667 931.171 506.085 930.752 506.504C930.333 506.923 929.915 507.551 929.496 508.388H906.26L903.12 511.528H906.888L893.7 524.088H923.216C922.379 524.925 921.332 525.972 920.076 527.228C918.82 528.484 917.564 529.531 916.308 530.368H913.168L910.028 533.508H884.908L869.836 546.068H894.328C891.816 548.161 889.095 550.255 886.164 552.348C883.652 554.441 880.931 556.535 878 558.628H872.348L859.16 568.048H857.276C855.601 568.885 853.927 569.932 852.252 571.188C850.996 572.444 849.74 573.491 848.484 574.328H854.136C852.461 575.584 850.577 577.049 848.484 578.724C846.391 579.98 844.297 581.236 842.204 582.492L840.948 583.748H840.32L837.808 585.632H970.316C971.991 585.632 974.084 586.051 976.596 586.888H973.456C975.968 588.144 978.48 590.237 980.992 593.168H981.62C983.295 595.261 984.132 598.401 984.132 602.588V605.728H981.62V612.008H1023.07V621.428H992.296V633.988H1001.72V646.548H982.876V652.828H959.64V665.388H1028.09V674.808H953.988V684.228H989.784V687.368H1043.16V696.788H974.712ZM780.66 398.488H837.808C836.133 395.557 833.621 393.464 830.272 392.208H798.872C796.36 390.952 792.383 390.324 786.94 390.324C782.753 390.324 778.985 390.952 775.636 392.208H726.024C723.931 392.627 722.047 393.464 720.372 394.72C718.697 395.976 717.023 397.232 715.348 398.488H763.076C762.657 398.907 762.239 399.325 761.82 399.744C761.401 400.163 760.983 400.791 760.564 401.628H781.916C781.916 401.209 781.497 400.163 780.66 398.488Z" fill="#FF6E6E"/>
</g>
<path d="M1136 641H1082V473H1019V431H1199V473H1136V641ZM1293.59 525.5C1280.99 525.5 1267.99 528.5 1254.59 534.5V641H1202.09V482H1248.59L1251.59 501.5C1268.79 486.5 1286.79 479 1305.59 479H1319.09V525.5H1293.59ZM1391.07 602C1401.67 602 1413.67 600 1427.07 596V578H1383.57C1380.57 578 1378.07 579 1376.07 581C1374.07 583 1373.07 585.5 1373.07 588.5V591.5C1373.07 594.5 1374.07 597 1376.07 599C1378.07 601 1380.57 602 1383.57 602H1391.07ZM1335.57 485C1372.17 481 1405.17 479 1434.57 479C1448.17 479 1459.07 483.1 1467.27 491.3C1475.47 499.5 1479.57 510.4 1479.57 524V641H1433.07L1430.07 626C1420.67 632.2 1410.97 636.8 1400.97 639.8C1391.17 642.6 1382.87 644 1376.07 644H1365.57C1351.97 644 1341.07 639.9 1332.87 631.7C1324.67 623.5 1320.57 612.6 1320.57 599V585.5C1320.57 571.9 1324.67 561 1332.87 552.8C1341.07 544.6 1351.97 540.5 1365.57 540.5H1427.07V528.5C1427.07 525.5 1426.07 523 1424.07 521C1422.07 519 1419.57 518 1416.57 518C1403.57 518 1389.17 518.6 1373.37 519.8C1357.77 521 1345.17 521.9 1335.57 522.5V485ZM1618.99 641L1615.99 626C1606.59 632.2 1596.89 636.8 1586.89 639.8C1577.09 642.6 1568.79 644 1561.99 644H1548.49C1534.89 644 1523.99 639.9 1515.79 631.7C1507.59 623.5 1503.49 612.6 1503.49 599V530C1503.49 515 1507.69 503.3 1516.09 494.9C1524.69 486.3 1536.49 482 1551.49 482H1612.99V431H1665.49V641H1618.99ZM1576.99 600.5C1587.59 600.5 1599.59 598.5 1612.99 594.5V522.5H1567.99C1559.99 522.5 1555.99 526.5 1555.99 534.5V590C1555.99 593 1556.99 595.5 1558.99 597.5C1560.99 599.5 1563.49 600.5 1566.49 600.5H1576.99ZM1756.95 516.5C1748.95 516.5 1744.95 520.5 1744.95 528.5V545H1795.95V528.5C1795.95 520.5 1791.95 516.5 1783.95 516.5H1756.95ZM1842.45 638C1803.85 642 1768.85 644 1737.45 644C1723.85 644 1712.95 639.9 1704.75 631.7C1696.55 623.5 1692.45 612.6 1692.45 599V527C1692.45 512 1696.65 500.3 1705.05 491.9C1713.65 483.3 1725.45 479 1740.45 479H1800.45C1815.45 479 1827.15 483.3 1835.55 491.9C1844.15 500.3 1848.45 512 1848.45 527V582.5H1744.95V594.5C1744.95 597.5 1745.95 600 1747.95 602C1749.95 604 1752.45 605 1755.45 605C1775.25 605 1804.25 603.5 1842.45 600.5V638Z" fill="white"/>
<path d="M320 638C275.4 642 238.4 644 209 644C189.4 644 175 639.4 165.8 630.2C156.6 621 152 606.6 152 587V491C152 470 156.7 454.8 166.1 445.4C175.7 435.8 191 431 212 431H320V473H224C212 473 206 479 206 491V587C206 591.6 207.3 595.3 209.9 598.1C212.7 600.7 216.2 602 220.4 602C224.6 602 229.2 602 234.2 602C239.2 601.8 244.4 601.6 249.8 601.4C255.2 601.2 260.6 601 266 600.8C271.6 600.6 278.7 600.2 287.3 599.6C296.1 599 307 598.3 320 597.5V638ZM337.735 597.5C392.535 600.5 429.635 602 449.035 602C453.635 602 457.235 600.7 459.835 598.1C462.635 595.3 464.035 591.6 464.035 587V560H395.035C374.035 560 358.735 555.3 349.135 545.9C339.735 536.3 335.035 521 335.035 500V491C335.035 470 339.735 454.8 349.135 445.4C358.735 435.8 374.035 431 395.035 431H500.335V473H407.035C395.035 473 389.035 479 389.035 491V497C389.035 509 395.035 515 407.035 515H461.035C480.635 515 495.035 519.6 504.235 528.8C513.435 538 518.035 552.4 518.035 572V587C518.035 606.6 513.435 621 504.235 630.2C495.035 639.4 480.635 644 461.035 644C450.835 644 440.035 643.8 428.635 643.4L401.035 642.2C380.635 641.2 359.535 639.8 337.735 638V597.5Z" fill="white"/>
<defs>
<filter id="filter0_d_2_20" x="526.088" y="266.608" width="521.076" height="456.392" filterUnits="userSpaceOnUse" color-interpolation-filters="sRGB">
<feFlood flood-opacity="0" result="BackgroundImageFix"/>
<feColorMatrix in="SourceAlpha" type="matrix" values="0 0 0 0 0 0 0 0 0 0 0 0 0 0 0 0 0 0 127 0" result="hardAlpha"/>
<feOffset dy="4"/>
<feGaussianBlur stdDeviation="2"/>
<feComposite in2="hardAlpha" operator="out"/>
<feColorMatrix type="matrix" values="0 0 0 0 0 0 0 0 0 0 0 0 0 0 0 0 0 0 0.25 0"/>
<feBlend mode="normal" in2="BackgroundImageFix" result="effect1_dropShadow_2_20"/>
<feBlend mode="normal" in="SourceGraphic" in2="effect1_dropShadow_2_20" result="shape"/>
</filter>
</defs>
</svg>
